<?xml version="1.0" encoding="UTF-8" standalone="no"?>
<svg width="436px" height="436px" viewBox="0 0 436 436" version="1.1" xmlns="http://www.w3.org/2000/svg" xmlns:xlink="http://www.w3.org/1999/xlink" xmlns:sketch="http://www.bohemiancoding.com/sketch/ns">
    <!-- Generator: Sketch 3.4.4 (17249) - http://www.bohemiancoding.com/sketch -->
    <title>Ebene_1</title>
    <desc>Created with Sketch.</desc>
    <defs></defs>
    <g id="Page-1" stroke="none" stroke-width="1" fill="none" fill-rule="evenodd" sketch:type="MSPage">
        <g id="Ebene_1" sketch:type="MSLayerGroup" transform="translate(-6.000000, -6.000000)">
            <g id="Group" sketch:type="MSShapeGroup">
                <path d="M0.5,223.659 C0.5,100.273 100.342,0.431 223.728,0.431 C347.115,0.431 446.957,100.273 446.957,223.66 C446.957,347.047 347.115,446.889 223.728,446.889 C100.342,446.888 0.5,347.046 0.5,223.659 L0.5,223.659 Z" id="Shape"></path>
            </g>
            <g id="Group" transform="translate(6.000000, 6.000000)" sketch:type="MSShapeGroup">
                <g transform="translate(212.000000, 396.000000)" id="Shape">
                    <path d="M5.728,5.728 L5.728,34.258"></path>
                    <path d="M0.728,5.728 L0.728,34.258 C0.728,40.706 10.728,40.706 10.728,34.258 L10.728,5.728 C10.728,-0.721 0.728,-0.721 0.728,5.728 L0.728,5.728 Z" fill="#000000"></path>
                </g>
                <g transform="translate(106.000000, 372.000000)" id="Shape">
                    <path d="M20.538,5.345 L5.429,29.815"></path>
                    <path d="M16.221,2.821 C11.185,10.977 6.148,19.134 1.112,27.291 C-2.286,32.794 6.366,37.812 9.747,32.338 C14.783,24.182 19.82,16.025 24.856,7.868 C28.253,2.365 19.601,-2.653 16.221,2.821 L16.221,2.821 Z" fill="#000000"></path>
                </g>
                <g transform="translate(28.000000, 304.000000)" id="Shape">
                    <path d="M30.323,5.21 L5.573,19.958"></path>
                    <path d="M27.799,0.893 L3.049,15.641 C-2.484,18.938 2.543,27.585 8.096,24.276 C16.346,19.36 24.596,14.444 32.846,9.528 C38.379,6.23 33.353,-2.417 27.799,0.893 L27.799,0.893 Z" fill="#000000"></path>
                </g>
                <g transform="translate(0.000000, 212.000000)" id="Shape">
                    <path d="M33.225,5.659 L5.13,5.659"></path>
                    <path d="M33.225,0.659 L5.13,0.659 C-1.319,0.659 -1.319,10.659 5.13,10.659 L33.225,10.659 C39.673,10.659 39.673,0.659 33.225,0.659 L33.225,0.659 Z" fill="#000000"></path>
                </g>
                <g transform="translate(28.000000, 106.000000)" id="Shape">
                    <path d="M30.683,19.312 L5.573,5.36"></path>
                    <path d="M33.207,14.995 C24.837,10.344 16.467,5.694 8.097,1.043 C2.455,-2.092 -2.587,6.546 3.05,9.678 C11.42,14.329 19.79,18.979 28.16,23.63 C33.801,26.764 38.843,18.126 33.207,14.995 L33.207,14.995 Z" fill="#000000"></path>
                </g>
                <g transform="translate(106.000000, 28.000000)" id="Shape">
                    <path d="M19.101,29.715 L5.43,5.504"></path>
                    <path d="M23.418,27.192 C18.861,19.121 14.304,11.051 9.747,2.981 C6.577,-2.633 -2.063,2.405 1.112,8.028 C5.669,16.099 10.226,24.169 14.783,32.239 C17.953,37.853 26.593,32.814 23.418,27.192 L23.418,27.192 Z" fill="#000000"></path>
                </g>
                <g transform="translate(212.000000, 0.000000)" id="Shape">
                    <path d="M5.728,33.224 L5.728,5.061"></path>
                    <path d="M10.728,33.224 L10.728,5.061 C10.728,-1.388 0.728,-1.388 0.728,5.061 L0.728,33.224 C0.728,39.672 10.728,39.672 10.728,33.224 L10.728,33.224 Z" fill="#000000"></path>
                </g>
                <g transform="translate(305.000000, 28.000000)" id="Shape">
                    <path d="M5.534,30.512 L19.028,5.504"></path>
                    <path d="M9.851,33.035 C14.349,24.699 18.847,16.363 23.345,8.027 C26.407,2.353 17.773,-2.696 14.71,2.98 C10.212,11.316 5.714,19.652 1.216,27.988 C-1.845,33.663 6.789,38.711 9.851,33.035 L9.851,33.035 Z" fill="#000000"></path>
                </g>
                <g transform="translate(372.000000, 106.000000)" id="Shape">
                    <path d="M5.133,20.109 L29.883,5.36"></path>
                    <path d="M7.657,24.426 C15.907,19.509 24.157,14.593 32.407,9.677 C37.939,6.38 32.914,-2.267 27.36,1.042 C19.11,5.959 10.86,10.875 2.61,15.791 C-2.922,19.088 2.103,27.736 7.657,24.426 L7.657,24.426 Z" fill="#000000"></path>
                </g>
                <g transform="translate(396.000000, 212.000000)" id="Shape">
                    <path d="M5.729,5.659 L34.327,5.659"></path>
                    <path d="M5.729,10.659 L34.327,10.659 C40.775,10.659 40.775,0.659 34.327,0.659 L5.729,0.659 C-0.719,0.659 -0.719,10.659 5.729,10.659 L5.729,10.659 Z" fill="#000000"></path>
                </g>
                <g transform="translate(372.000000, 305.000000)" id="Shape">
                    <path d="M5.494,5.028 L29.884,18.958"></path>
                    <path d="M2.97,9.346 C11.1,13.99 19.23,18.632 27.36,23.276 C32.968,26.479 38.005,17.838 32.407,14.641 C24.277,9.997 16.147,5.355 8.017,0.711 C2.409,-2.492 -2.627,6.148 2.97,9.346 L2.97,9.346 Z" fill="#000000"></path>
                </g>
                <g transform="translate(304.000000, 371.000000)" id="Shape">
                    <path d="M5.817,5.526 L20.028,30.814"></path>
                    <path d="M1.5,8.05 C6.237,16.48 10.974,24.909 15.711,33.338 C18.87,38.959 27.509,33.919 24.346,28.291 C19.609,19.861 14.872,11.433 10.135,3.003 C6.975,-2.618 -1.664,2.422 1.5,8.05 L1.5,8.05 Z" fill="#000000"></path>
                </g>
            </g>
        </g>
    </g>
</svg>